<svg id="Ebene_1" data-name="Ebene 1" xmlns="http://www.w3.org/2000/svg" viewBox="0 0 508.74 126.43"><defs><style>.cls-1{fill:#1a1a1a;}</style></defs><title>instantfame</title><path class="cls-1" d="M61.75,5.07a2.36,2.36,0,0,0-.36.72,6.47,6.47,0,0,0-.22,2,13.11,13.11,0,0,0,.58,3.89V59.35a67.75,67.75,0,0,1-1.44,14.11,34.07,34.07,0,0,1-5,12,24.88,24.88,0,0,1-9.65,8.35q-6.12,3.1-15.62,3.1H28.2q-8.21,0-13.32-2.23a21.22,21.22,0,0,1-8-5.69A18.68,18.68,0,0,1,3,81.46a33,33,0,0,1-1-7.85,23.6,23.6,0,0,1,.79-6.12,17.08,17.08,0,0,1,2.3-5.18,12.51,12.51,0,0,1,3.67-3.6,9,9,0,0,1,4.9-1.37q2.59,0,3.31,1.37a6,6,0,0,1,.72,2.81,9.8,9.8,0,0,1-1.3,5.26,22.3,22.3,0,0,1-2.81,3.67Q12.07,72,10.77,73.61a5.94,5.94,0,0,0-1.3,3.89q0,6.91,4.61,9.94a20.57,20.57,0,0,0,11.52,3A21.51,21.51,0,0,0,36.12,88a24,24,0,0,0,7.42-6.19,26.32,26.32,0,0,0,4.39-8.14,26.66,26.66,0,0,0,1.44-8.28l-2.16.14a16.67,16.67,0,0,1-9-2.38,21.5,21.5,0,0,1-6.34-6,26.36,26.36,0,0,1-3.74-7.78,27.71,27.71,0,0,1-1.22-7.78v-5a33.78,33.78,0,0,1,.72-6.41,64.49,64.49,0,0,1,2-7.63,60.11,60.11,0,0,1,3.17-7.78,48.46,48.46,0,0,1,4-6.84,22.67,22.67,0,0,1,4.61-4.9,8.22,8.22,0,0,1,5-1.87,7.4,7.4,0,0,1,2.3.43L58.87,2.33a5.1,5.1,0,0,1,1.94.72A2.18,2.18,0,0,1,61.75,5.07ZM49.37,22.35q0.29-1.15.58-2.16a8.43,8.43,0,0,0,.29-2.3,6.31,6.31,0,0,0-.94-3.38A3.66,3.66,0,0,0,45.91,13a6.28,6.28,0,0,0-5.18,2.59,18.73,18.73,0,0,0-3.1,6.19,42.24,42.24,0,0,0-1.51,7.49,59.77,59.77,0,0,0-.43,6.34q0,1.87.29,5.4a32,32,0,0,0,1.37,7,19.86,19.86,0,0,0,3,6,6.22,6.22,0,0,0,5.26,2.59q0.29,0,1.66-.14A8.08,8.08,0,0,0,49.37,56V22.35Z" transform="translate(-1.99 -0.46)"/><path class="cls-1" d="M94.72,59.79a28.65,28.65,0,0,0-3.53,6.7,73.72,73.72,0,0,0-2.38,7.63q-1,4-1.66,7.92T85.8,89.59c-0.19.58-.94,1-2.23,1.15a21.51,21.51,0,0,1-2.81.29,25.44,25.44,0,0,1-4.25-.29A4,4,0,0,1,74,89.38a7.65,7.65,0,0,1-1.3-3.31,54.88,54.88,0,0,1-.72-6l1.87-42.77a1.72,1.72,0,0,1,2-1.87,13.19,13.19,0,0,1,2,.22,22.36,22.36,0,0,1,2.74.65,9.67,9.67,0,0,1,2.45,1.08,1.83,1.83,0,0,1,1,1.51V68.14A4,4,0,0,0,84.5,67q1-2.59,2.45-6.41a77,77,0,0,1,3.17-7.27,33.82,33.82,0,0,1,3.67-5.9q1.94-2.45,4-2.45a5.76,5.76,0,0,1,4,1.22,7.9,7.9,0,0,1,2.09,3.1,13.76,13.76,0,0,1,.86,4q0.14,2.16.14,4.18,0,1.44-.29,4.75t-0.29,9.94a29.18,29.18,0,0,0,.72,6.77q0.72,3,2.88,3a3.82,3.82,0,0,0,2.88-1.44,16.11,16.11,0,0,0,2.38-3.6,27.91,27.91,0,0,0,1.8-4.61,21.55,21.55,0,0,0,.86-4.61Q115.89,65,117.91,65a1.74,1.74,0,0,1,1.73.86,4.46,4.46,0,0,1,.43,2v0.29A32.62,32.62,0,0,1,119,74.62a27.82,27.82,0,0,1-2.74,6.77,17.22,17.22,0,0,1-4.68,5.33,11.43,11.43,0,0,1-7.06,2.16q-6.48,0-8.28-4.68t-1.8-13.9Z" transform="translate(-1.99 -0.46)"/><path class="cls-1" d="M150.88,82.25a6.48,6.48,0,0,1-2.3,5.33,14.87,14.87,0,0,1-5.26,2.74,28.38,28.38,0,0,1-5.9,1.08q-3,.22-4.25.22a35.27,35.27,0,0,1-5-.43,33.33,33.33,0,0,1-5.76-1.37,13.44,13.44,0,0,1-4.75-2.66,5.54,5.54,0,0,1-1.94-4.32A2.31,2.31,0,0,1,117,80.59a4.72,4.72,0,0,1,5.47.5q1.51,1.15,3.17,2.45A30.17,30.17,0,0,0,129.28,86a9.1,9.1,0,0,0,4.61,1.15,8.79,8.79,0,0,0,3.1-.79,2.82,2.82,0,0,0,1.94-2.81,5.84,5.84,0,0,0-1.66-3.89,34,34,0,0,0-4.18-3.89q-2.52-2-5.4-4.18a49.9,49.9,0,0,1-5.4-4.68,24.25,24.25,0,0,1-4.18-5.54,13.56,13.56,0,0,1-1.66-6.62,12,12,0,0,1,3.24-8.5,24.18,24.18,0,0,1,7.63-5.47,38.51,38.51,0,0,1,9-2.88,41.73,41.73,0,0,1,7.2-.86,12.81,12.81,0,0,1,4.9,1,3.82,3.82,0,0,1,2.45,3.89,13,13,0,0,1-.36,2.52,13.85,13.85,0,0,1-1.15,3.24,9.94,9.94,0,0,1-2.09,2.81A4.63,4.63,0,0,1,144,51.72a1.75,1.75,0,0,1-1.15-.5l-1.3-1.15A11.81,11.81,0,0,0,140,48.92a3.29,3.29,0,0,0-1.8-.5q-5,0-7.06,3a10.91,10.91,0,0,0-2,6.26q0,2.88,3.38,6T140,70q4.1,3.17,7.49,6.26T150.88,82.25Z" transform="translate(-1.99 -0.46)"/><path class="cls-1" d="M154.05,65.12q0.14-7.34.43-15T155.06,36q0-1.15-2.3-1.58t-5.18-.86a22.65,22.65,0,0,1-5.18-1.37,3.21,3.21,0,0,1-2.3-3.1q0-1.87,3.74-2.16t11.09-.29q0.57,0,.79-1.73T156,20.55q0.07-2.66.14-5.69t0.22-5.69a29.86,29.86,0,0,1,.5-4.39q0.36-1.73.94-1.73a20.47,20.47,0,0,1,2.59.29q1.87,0.29,3.89.79a19.07,19.07,0,0,1,3.53,1.22q1.51,0.72,1.51,1.58l-1.58,18.72q0,0.86,1.51,1.22a19.77,19.77,0,0,0,3.89.43q2.38,0.07,5,.07a28.15,28.15,0,0,1,5,.43,11.19,11.19,0,0,1,3.89,1.37A3.09,3.09,0,0,1,188.61,32a2.73,2.73,0,0,1-.29.94,0.87,0.87,0,0,1-.72.65,1.44,1.44,0,0,1-.79-0.43,4.93,4.93,0,0,0-2.66-.43q-0.58,0-3.17.14t-5.47.43q-2.88.29-5.26,0.65t-2.66.94a21.25,21.25,0,0,0-.36,3.38q-0.22,3.1-.43,8.14T166.43,58q-0.15,6.55-.14,13.75a47.89,47.89,0,0,0,.29,5.33,30,30,0,0,0,.86,4.68A10.48,10.48,0,0,0,169,85.13a2.71,2.71,0,0,0,2.23,1.3,4.81,4.81,0,0,0,3.46-1.58,15.35,15.35,0,0,0,2.88-4.32,41.89,41.89,0,0,0,2.3-6.19q1-3.46,1.73-7.06a10,10,0,0,1,1-3.1,1.9,1.9,0,0,1,1.73-.94,2.77,2.77,0,0,1,1.8.65q0.79,0.65.79,3a7.54,7.54,0,0,1-.14,1.87q-0.43,2.59-1.66,7.13a52.92,52.92,0,0,1-3.31,8.93,31.16,31.16,0,0,1-5.11,7.7,9.29,9.29,0,0,1-7.06,3.31,10.73,10.73,0,0,1-6.77-2.23A17.27,17.27,0,0,1,158,87.36a36.33,36.33,0,0,1-3-9.36,63.1,63.1,0,0,1-1-11.59v-1.3Z" transform="translate(-1.99 -0.46)"/><path class="cls-1" d="M239.44,75.48A19.92,19.92,0,0,1,238,80.24a27.25,27.25,0,0,1-3,5.26,18.5,18.5,0,0,1-4.18,4.25,8.74,8.74,0,0,1-5.26,1.73,10.25,10.25,0,0,1-7.56-3.31q-3.24-3.31-4-9.36-0.86,2.3-2,5.33a28.24,28.24,0,0,1-2.88,5.62,19.48,19.48,0,0,1-4,4.39,8.13,8.13,0,0,1-5.26,1.8,4.41,4.41,0,0,1-1.3-.14c-0.29-.1-0.6-0.22-0.94-0.36a6.42,6.42,0,0,0-1.15-.36,8.62,8.62,0,0,0-1.8-.14A8.21,8.21,0,0,1,189,92.69,16.24,16.24,0,0,1,185.15,87a32.94,32.94,0,0,1-2.09-7.56,49.51,49.51,0,0,1-.65-7.7,137.15,137.15,0,0,1,.94-16.42,62.49,62.49,0,0,1,3.1-13.75,26,26,0,0,1,5.62-9.5,11.26,11.26,0,0,1,8.35-3.53,14.69,14.69,0,0,1,4.39.5,21.65,21.65,0,0,1,2.81,1.15q1.3,0.65,2.81,1.37a15.93,15.93,0,0,0,4.25,1.15,10.33,10.33,0,0,1,4.25,4.1,15.55,15.55,0,0,1,1.58,5.11,32,32,0,0,1,.22,5.69,29.46,29.46,0,0,0,.29,5.83,1.1,1.1,0,0,0,.65.43l1.51,0.65a4.66,4.66,0,0,1,1.51,1,2.25,2.25,0,0,1,.65,1.66v0.58a26,26,0,0,0-1.73,6.62q-0.29,2.88-.29,6.91,0,2,.22,4.39a30.76,30.76,0,0,0,.72,4.46,9.51,9.51,0,0,0,1.51,3.46A3.08,3.08,0,0,0,228.35,85a3.92,3.92,0,0,0,3.1-1.73,16.84,16.84,0,0,0,2.3-4,39.16,39.16,0,0,0,1.58-4.54,26.07,26.07,0,0,0,.79-3.46q0.29-1.73,1.44-1.73a1.81,1.81,0,0,1,1.37.79,4.55,4.55,0,0,1,.65,2.81v1.08A6.5,6.5,0,0,1,239.44,75.48ZM212.8,52.16a29,29,0,0,0-.29-3.74,17.82,17.82,0,0,0-1-4,8.15,8.15,0,0,0-2.16-3.17,5.6,5.6,0,0,0-3.89-1.3,7.64,7.64,0,0,0-6.55,3.67,29.76,29.76,0,0,0-4,8.64,51.88,51.88,0,0,0-1.87,10.22q-0.43,5.26-.43,8.28,0,2.31.22,5.54a47.09,47.09,0,0,0,.79,6.12,17.67,17.67,0,0,0,1.66,4.9,3.19,3.19,0,0,0,2.81,2,7.31,7.31,0,0,0,6.41-3.24A23.92,23.92,0,0,0,207.91,78a73.42,73.42,0,0,0,1.66-10.37q0.5-5.54.94-10.15,0.29-2.45,1.3-3.1a2,2,0,0,0,1-.94v-1.3Z" transform="translate(-1.99 -0.46)"/><path class="cls-1" d="M257.15,59.79a28.65,28.65,0,0,0-3.53,6.7,73.72,73.72,0,0,0-2.38,7.63q-1,4-1.66,7.92t-1.37,7.56c-0.19.58-.94,1-2.23,1.15a21.51,21.51,0,0,1-2.81.29,25.44,25.44,0,0,1-4.25-.29,4,4,0,0,1-2.52-1.37,7.65,7.65,0,0,1-1.3-3.31,54.88,54.88,0,0,1-.72-6l1.87-42.77a1.72,1.72,0,0,1,2-1.87,13.19,13.19,0,0,1,2,.22,22.36,22.36,0,0,1,2.74.65,9.67,9.67,0,0,1,2.45,1.08,1.83,1.83,0,0,1,1,1.51V68.14a4,4,0,0,0,.43-1.15q1-2.59,2.45-6.41a77,77,0,0,1,3.17-7.27,33.82,33.82,0,0,1,3.67-5.9q1.94-2.45,4-2.45a5.77,5.77,0,0,1,4,1.22,7.91,7.91,0,0,1,2.09,3.1,13.75,13.75,0,0,1,.86,4q0.14,2.16.14,4.18,0,1.44-.29,4.75t-0.29,9.94a29.13,29.13,0,0,0,.72,6.77q0.72,3,2.88,3a3.83,3.83,0,0,0,2.88-1.44,16.11,16.11,0,0,0,2.38-3.6,27.87,27.87,0,0,0,1.8-4.61,21.51,21.51,0,0,0,.86-4.61Q278.32,65,280.34,65a1.74,1.74,0,0,1,1.73.86,4.46,4.46,0,0,1,.43,2v0.29a32.59,32.59,0,0,1-1.08,6.48,27.78,27.78,0,0,1-2.74,6.77A17.21,17.21,0,0,1,274,86.71a11.42,11.42,0,0,1-7.06,2.16q-6.48,0-8.28-4.68t-1.8-13.9Z" transform="translate(-1.99 -0.46)"/><path class="cls-1" d="M276.88,65.12q0.14-7.34.43-15T277.89,36q0-1.15-2.3-1.58t-5.18-.86a22.64,22.64,0,0,1-5.18-1.37,3.21,3.21,0,0,1-2.3-3.1q0-1.87,3.74-2.16t11.09-.29q0.57,0,.79-1.73t0.29-4.39q0.07-2.66.14-5.69t0.22-5.69a29.94,29.94,0,0,1,.5-4.39c0.24-1.15.55-1.73,0.94-1.73a20.46,20.46,0,0,1,2.59.29q1.87,0.29,3.89.79a19.08,19.08,0,0,1,3.53,1.22q1.51,0.72,1.51,1.58l-1.58,18.72q0,0.86,1.51,1.22a19.76,19.76,0,0,0,3.89.43q2.38,0.07,5,.07a28.14,28.14,0,0,1,5,.43,11.2,11.2,0,0,1,3.89,1.37A3.09,3.09,0,0,1,311.44,32a2.72,2.72,0,0,1-.29.94,0.87,0.87,0,0,1-.72.65,1.43,1.43,0,0,1-.79-0.43,4.93,4.93,0,0,0-2.66-.43q-0.58,0-3.17.14t-5.47.43q-2.88.29-5.26,0.65t-2.66.94a21.11,21.11,0,0,0-.36,3.38q-0.22,3.1-.43,8.14T289.26,58q-0.15,6.55-.14,13.75a47.89,47.89,0,0,0,.29,5.33,30,30,0,0,0,.86,4.68,10.51,10.51,0,0,0,1.51,3.38,2.71,2.71,0,0,0,2.23,1.3,4.82,4.82,0,0,0,3.46-1.58,15.33,15.33,0,0,0,2.88-4.32,42,42,0,0,0,2.3-6.19q1-3.46,1.73-7.06a10,10,0,0,1,1-3.1,1.89,1.89,0,0,1,1.73-.94,2.77,2.77,0,0,1,1.8.65q0.79,0.65.79,3a7.57,7.57,0,0,1-.14,1.87q-0.43,2.59-1.66,7.13a52.93,52.93,0,0,1-3.31,8.93,31.17,31.17,0,0,1-5.11,7.7,9.29,9.29,0,0,1-7.06,3.31,10.73,10.73,0,0,1-6.77-2.23,17.27,17.27,0,0,1-4.82-6.19,36.35,36.35,0,0,1-3-9.36,63.1,63.1,0,0,1-1-11.59v-1.3Z" transform="translate(-1.99 -0.46)"/><path class="cls-1" d="M338.51,51a24.22,24.22,0,0,1-2.23,4.46,23.58,23.58,0,0,1-4,4.75,13.63,13.63,0,0,1,2.59,4.32,28.43,28.43,0,0,1,1.51,5.62,52,52,0,0,1,.65,6.12q0.14,3.1.14,6,0,0.72-.22,4.39t-0.86,8.64q-0.65,5-1.73,10.51A72.06,72.06,0,0,1,331.67,116a31,31,0,0,1-3.89,7.78,6.53,6.53,0,0,1-5.4,3.1,8.81,8.81,0,0,1-3-.65,24.13,24.13,0,0,1-3.38-1.58,17.49,17.49,0,0,1-3.1-2.23,10.28,10.28,0,0,1-2.16-2.59q-1.29-2.45-2-8.42A143.81,143.81,0,0,1,308,95.07q0-5.62.43-11.81t1-14q-1-.29-2.23-0.72a15,15,0,0,1-2.38-1.08,6.05,6.05,0,0,1-1.94-1.73,4.16,4.16,0,0,1-.79-2.52,5,5,0,0,1,.79-2.88A6.07,6.07,0,0,1,305,58.49a15.27,15.27,0,0,1,3-1.22q1.65-.5,3.24-0.94,0.57-3.17,2-8.71t2.88-12q1.44-6.48,2.52-13A72.15,72.15,0,0,0,319.65,11a26.59,26.59,0,0,0-.36-4.61,11.17,11.17,0,0,0-1.8-4.18A13.76,13.76,0,0,1,320.87,1a20.7,20.7,0,0,1,4.82-.5,9.6,9.6,0,0,1,2.38.36A9,9,0,0,1,330.66,2a8.75,8.75,0,0,1,2.09,1.87,3.92,3.92,0,0,1,.86,2.52,25.32,25.32,0,0,1-1.3,7.78q-1.29,4-2.45,9.07-0.58,2.59-1.3,5.26t-1.73,6.19q-1,3.53-2.3,8.42t-3.17,12.24q1.73-.29,3.17-0.58t3.31-.72q1.87-.43,4.32-1.15Zm-8.64,26.35c0-.19,0-1-0.14-2.3a38.12,38.12,0,0,0-.58-4.32A23.94,23.94,0,0,0,328,66.56q-0.72-1.87-1.87-1.87a5.44,5.44,0,0,0-1.3.36,20.1,20.1,0,0,0-2.16.94l-2.88,1.44q-0.86,5.62-1.37,14.26t-0.94,22.75q0,0.29.07,2.38t0.29,4.54a20.48,20.48,0,0,0,.86,4.46q0.65,2,1.66,2,1.73,0,3.17-2.23A22,22,0,0,0,326,110q1-3.39,1.8-7.42T329,95.07q0.43-3.46.65-5.9t0.22-2.74V77.35Z" transform="translate(-1.99 -0.46)"/><path class="cls-1" d="M398,75.48a19.89,19.89,0,0,1-1.44,4.75,27.25,27.25,0,0,1-3,5.26,18.5,18.5,0,0,1-4.18,4.25,8.74,8.74,0,0,1-5.26,1.73,10.25,10.25,0,0,1-7.56-3.31q-3.24-3.31-4-9.36-0.86,2.3-2,5.33a28.24,28.24,0,0,1-2.88,5.62,19.49,19.49,0,0,1-4,4.39,8.13,8.13,0,0,1-5.26,1.8,4.43,4.43,0,0,1-1.3-.14c-0.29-.1-0.6-0.22-0.94-0.36a6.44,6.44,0,0,0-1.15-.36,8.61,8.61,0,0,0-1.8-.14,8.21,8.21,0,0,1-5.83-2.23A16.24,16.24,0,0,1,343.69,87a32.89,32.89,0,0,1-2.09-7.56,49.46,49.46,0,0,1-.65-7.7,137.26,137.26,0,0,1,.94-16.42A62.52,62.52,0,0,1,345,41.57a26,26,0,0,1,5.62-9.5A11.26,11.26,0,0,1,359,28.54a14.69,14.69,0,0,1,4.39.5,21.61,21.61,0,0,1,2.81,1.15q1.3,0.65,2.81,1.37a15.93,15.93,0,0,0,4.25,1.15,10.33,10.33,0,0,1,4.25,4.1A15.54,15.54,0,0,1,379,41.93a32,32,0,0,1,.22,5.69,29.46,29.46,0,0,0,.29,5.83,1.1,1.1,0,0,0,.65.43l1.51,0.65a4.65,4.65,0,0,1,1.51,1,2.25,2.25,0,0,1,.65,1.66v0.58a26,26,0,0,0-1.73,6.62q-0.29,2.88-.29,6.91,0,2,.21,4.39a30.76,30.76,0,0,0,.72,4.46,9.52,9.52,0,0,0,1.51,3.46A3.08,3.08,0,0,0,386.89,85a3.92,3.92,0,0,0,3.1-1.73,16.81,16.81,0,0,0,2.3-4,39.07,39.07,0,0,0,1.58-4.54,26.15,26.15,0,0,0,.79-3.46q0.29-1.73,1.44-1.73a1.81,1.81,0,0,1,1.37.79,4.55,4.55,0,0,1,.65,2.81v1.08A6.42,6.42,0,0,1,398,75.48ZM371.34,52.16a29,29,0,0,0-.29-3.74,17.82,17.82,0,0,0-1-4,8.15,8.15,0,0,0-2.16-3.17,5.6,5.6,0,0,0-3.89-1.3,7.64,7.64,0,0,0-6.55,3.67,29.75,29.75,0,0,0-4,8.64,51.85,51.85,0,0,0-1.87,10.22q-0.43,5.26-.43,8.28,0,2.31.21,5.54a47.17,47.17,0,0,0,.79,6.12,17.65,17.65,0,0,0,1.66,4.9,3.19,3.19,0,0,0,2.81,2,7.31,7.31,0,0,0,6.41-3.24A23.9,23.9,0,0,0,366.45,78a73.49,73.49,0,0,0,1.66-10.37q0.5-5.54.94-10.15,0.29-2.45,1.3-3.1a2,2,0,0,0,1-.94v-1.3Z" transform="translate(-1.99 -0.46)"/><path class="cls-1" d="M442,55.76q-2,3.89-3.74,8.21t-2.59,6.77q-0.15.72-.79,3l-1.44,5.11q-0.79,2.81-1.37,5.54a22.58,22.58,0,0,0-.58,4.46,1.7,1.7,0,0,1-1.29,1.3,8.19,8.19,0,0,1-3.31.58,12.19,12.19,0,0,1-5-.86,5.7,5.7,0,0,1-2.81-2.81A14.1,14.1,0,0,1,417.92,82q-0.22-3.17-.22-7.63V63.53q0-1.15-.07-2.3a1.86,1.86,0,0,0-.5-1.44q-0.72.29-1.8,3.74a75.41,75.41,0,0,0-2,8.42q-0.94,5-1.66,10.44a75.48,75.48,0,0,0-.72,9.79,1.75,1.75,0,0,1-1.66,1.87,21.59,21.59,0,0,1-3.67.29,14.28,14.28,0,0,1-1.94-.22c-0.91-.14-1.82-0.31-2.74-0.5a13,13,0,0,1-2.52-.79A2.51,2.51,0,0,1,397,91.61a24.5,24.5,0,0,1-1.08-6.19q-0.36-4.32-.36-13.39,0-5.33.22-12.38t0.5-16.56q0-1.3-.14-3.38T396,37.32A1.21,1.21,0,0,1,396.9,36a6.86,6.86,0,0,1,1.37-.22,15.56,15.56,0,0,1,2.38.22q1.37,0.22,2.74.5t2.52,0.65a7,7,0,0,1,1.58.65v34.7q0.72-2.88,1.66-6.7t2.16-7.56A66.92,66.92,0,0,1,414,51.29a14.11,14.11,0,0,1,3-4.61,5,5,0,0,1,2.16-.65,19.92,19.92,0,0,1,2.59-.22,9.5,9.5,0,0,1,1.8.22,10.55,10.55,0,0,1,2.09.65,7.49,7.49,0,0,1,1.8,1.08,2.46,2.46,0,0,1,.94,1.51V73.9q0,0.86.29,0.86t1.64-3.89l3.22-9.22q1.86-5.33,4-10.94a89.22,89.22,0,0,1,3.87-8.93q0.28-.57,1.93-0.65t2.94-.07a8.29,8.29,0,0,1,2.72.65,15.38,15.38,0,0,1,3.37,1.8,15.14,15.14,0,0,1,2.88,2.59,4.62,4.62,0,0,1,1.22,3,5.68,5.68,0,0,1-.86,1.66,8.3,8.3,0,0,0-1.15,2.81,52.48,52.48,0,0,0-1.37,7.92q-0.36,3.89-.36,9.94,0,2.59.22,5.18a30.93,30.93,0,0,0,.72,4.68A10.54,10.54,0,0,0,455,84.7a2.65,2.65,0,0,0,2.3,1.3,5.36,5.36,0,0,0,3.6-1.37A11.68,11.68,0,0,0,463.64,81a30.38,30.38,0,0,0,2-5.4q0.86-3.09,1.44-6.41t2.59-3.46a1.67,1.67,0,0,1,1.51.58,5.86,5.86,0,0,1,.36,2.59,5.83,5.83,0,0,1-.14,1.58,35.23,35.23,0,0,1-1.22,5.83,44.47,44.47,0,0,1-3,7.92,26.54,26.54,0,0,1-4.82,6.91,9,9,0,0,1-6.62,3A12,12,0,0,1,448.43,92,13.67,13.67,0,0,1,444,86.35a30.33,30.33,0,0,1-2.21-8.14,70.09,70.09,0,0,1-.64-9.65v-1Z" transform="translate(-1.99 -0.46)"/><path class="cls-1" d="M510.73,69a29.23,29.23,0,0,1-1.3,8.06,27.08,27.08,0,0,1-4,8.28,23.6,23.6,0,0,1-7,6.41,19.12,19.12,0,0,1-10.15,2.59,20.47,20.47,0,0,1-9.5-2,18.13,18.13,0,0,1-6.41-5.47,22,22,0,0,1-3.6-8.14,43.7,43.7,0,0,1-1.08-9.86,59.51,59.51,0,0,1,1.15-11.09,47.8,47.8,0,0,1,3.6-11.3,28.31,28.31,0,0,1,6.19-8.78,12.75,12.75,0,0,1,9.07-3.53,11.4,11.4,0,0,1,4.9,1.08,14.16,14.16,0,0,1,4,2.81,13.06,13.06,0,0,1,2.74,4,13.88,13.88,0,0,1,1.15,4.75l0.14,2a28.19,28.19,0,0,1-1.15,7.56A30.2,30.2,0,0,1,496.19,64a21,21,0,0,1-5.33,5.9,11.69,11.69,0,0,1-7.2,2.38,13.92,13.92,0,0,1-1.8-.14,14.2,14.2,0,0,1-2.09-.43v4.18a9.6,9.6,0,0,0,.65,2.88,14.28,14.28,0,0,0,1.94,3.67,12.6,12.6,0,0,0,3.38,3.17A9.11,9.11,0,0,0,490.86,87a12.77,12.77,0,0,0,6.84-1.66,14.26,14.26,0,0,0,4.39-4.25,21,21,0,0,0,2.66-5.83Q505.69,72,506.27,69a10.15,10.15,0,0,1,.86-2.74,1.55,1.55,0,0,1,1.44-.72q2.16,0,2.16,2.45v1Zm-17-22.32a5.5,5.5,0,0,0-.65-2.45,2.41,2.41,0,0,0-2.38-1.3,5.37,5.37,0,0,0-4.46,2.74,26.19,26.19,0,0,0-3.1,6.26,44.19,44.19,0,0,0-1.8,6.77,31.46,31.46,0,0,0-.58,4.25v0.43a8.2,8.2,0,0,0,.22,2.09,1.33,1.33,0,0,0,1.51.79h0.72a6.45,6.45,0,0,0,4.9-2.16,16.7,16.7,0,0,0,3.24-5.18,31.61,31.61,0,0,0,1.8-6.19,30.29,30.29,0,0,0,.58-5.18V46.68Z" transform="translate(-1.99 -0.46)"/></svg>